PathFileType	4	(X/Y/Z)	C:/Users/opensim2020/Desktop/walking_exp_matlab/subject06_walking23_straight_02.trc	
DataRate	CameraRate	NumFrames	NumMarkers	Units	OrigDataRate	OrigDataStartFrame	OrigNumFrames	
100.00	100.00	6	45	mm	100.00	1376	114	
Frame#	Time	LFHD			RFHD			LBHD			RBHD			C7			T10			CLAV			STRN			RBAK			LSHO			LUPA			LELB			LFRM			LWRA			LWRB			LFIN			RSHO			RUPA			RELB			RFRM			RWRA			RWRB			RFIN			LASI			RASI			LPSI			RPSI			LTHI			LKNE			LTIB			LANK			LHEE			LTOE			RTHI			RKNE			RTIB			RANK			RHEE			RTOE			*39			*40			*41			*42			*43			*44			
		X1	Y1	Z1	X2	Y2	Z2	X3	Y3	Z3	X4	Y4	Z4	X5	Y5	Z5	X6	Y6	Z6	X7	Y7	Z7	X8	Y8	Z8	X9	Y9	Z9	X10	Y10	Z10	X11	Y11	Z11	X12	Y12	Z12	X13	Y13	Z13	X14	Y14	Z14	X15	Y15	Z15	X16	Y16	Z16	X17	Y17	Z17	X18	Y18	Z18	X19	Y19	Z19	X20	Y20	Z20	X21	Y21	Z21	X22	Y22	Z22	X23	Y23	Z23	X24	Y24	Z24	X25	Y25	Z25	X26	Y26	Z26	X27	Y27	Z27	X28	Y28	Z28	X29	Y29	Z29	X30	Y30	Z30	X31	Y31	Z31	X32	Y32	Z32	X33	Y33	Z33	X34	Y34	Z34	X35	Y35	Z35	X36	Y36	Z36	X37	Y37	Z37	X38	Y38	Z38	X39	Y39	Z39	X40	Y40	Z40	X41	Y41	Z41	X42	Y42	Z42	X43	Y43	Z43	X44	Y44	Z44	X45	Y45	Z45	

100	0.990	-894.75079	-578.12219	1656.53296	-1023.95172	-606.50281	1658.44165	-929.64063	-445.51578	1610.92090	-1055.88159	-476.25165	1617.42651	-990.39917	-452.73431	1452.60498	-1001.94348	-427.79587	1121.78271	-983.03723	-565.63879	1379.43579	-978.18762	-612.47314	1208.35059	-1076.02441	-390.72513	1280.91394	-826.01459	-494.31915	1404.55737	-756.35071	-493.04062	1202.09314	-745.87488	-494.42459	1088.81567	-723.76624	-553.09753	950.25702	-762.68848	-648.61859	862.68005	-731.11725	-590.38556	837.04559	-726.71680	-655.96289	775.09076	-1146.41992	-528.63702	1413.90759	-1246.00330	-487.63742	1223.02356	-1261.94629	-491.77759	1100.87915	-1280.32556	-515.83966	983.66772	-1245.53088	-585.77985	850.96265	-1288.69519	-534.22284	847.22473	-1288.60352	-578.17743	775.11157	-890.66071	-606.05853	967.24237	-1108.99023	-612.27704	978.48993	-919.84930	-448.64636	985.26587	-1086.82434	-458.07617	996.16333	-835.44507	-599.15137	647.61108	-856.93298	-643.17365	491.46671	-862.60162	-479.23941	309.52029	-897.95892	-369.57336	175.73759	-947.01257	-331.00598	183.83549	-886.88373	-462.21384	66.08955	-1162.22913	-584.38641	637.42615	-1133.88379	-602.70490	513.27039	-1120.46643	-540.65479	250.48593	-1063.35803	-514.46875	69.99057	-1016.39233	-475.29675	49.42364	-1073.64331	-666.48578	30.97478	-970.02527	-494.89069	1706.64124															 
101	1.000	-894.02051	-590.69769	1656.73608	-1023.14972	-619.47644	1658.95276	-929.49750	-458.26776	1611.38184	-1055.68970	-489.34656	1618.33752	-990.82129	-465.32822	1453.15344	-1002.48181	-440.08319	1122.43921	-983.27795	-578.02631	1379.87231	-978.80054	-624.71527	1208.70703	-1076.64844	-403.46240	1281.60095	-826.29840	-506.45917	1404.83093	-757.11523	-502.72028	1202.20239	-746.95874	-502.65079	1088.87012	-724.65344	-556.44788	948.50439	-762.60571	-648.57819	856.76105	-731.56537	-589.03845	833.73743	-726.35553	-652.12219	768.98413	-1146.70264	-541.35547	1414.73767	-1246.81018	-501.29993	1223.82031	-1262.99036	-506.68939	1102.03357	-1280.93677	-534.35028	985.68353	-1245.24377	-608.95728	855.92328	-1288.29822	-557.60107	850.02594	-1287.58179	-604.21564	779.56976	-891.48590	-619.41309	968.26752	-1109.94275	-623.79718	978.41663	-919.95441	-461.22949	986.07733	-1087.01538	-469.68436	996.57617	-835.26550	-616.85138	650.32611	-857.57611	-662.83795	494.63599	-863.84265	-505.69431	305.47852	-899.65265	-402.81586	166.41254	-948.80664	-364.33740	172.48125	-886.77802	-500.96982	62.07656	-1162.15979	-591.55652	637.18726	-1134.26379	-608.29181	512.62433	-1120.35474	-543.45178	250.38129	-1063.53613	-514.68060	70.49711	-1015.77753	-475.89011	49.64891	-1073.85449	-666.55365	30.91972	-969.42725	-507.83801	1707.15710															 
102	1.010	-893.26837	-603.35986	1656.87622	-1022.37665	-632.42480	1659.22388	-928.98474	-470.54120	1611.67383	-1055.50647	-502.29507	1618.75696	-991.15894	-478.26971	1452.72290	-1003.16248	-452.51035	1122.67505	-983.44562	-590.44159	1380.01074	-979.32953	-636.89172	1208.75598	-1077.67139	-415.81671	1282.03040	-826.63489	-518.48029	1404.75488	-757.97424	-512.32977	1201.93860	-748.05017	-510.74762	1088.69275	-725.08838	-559.63287	946.52942	-762.50201	-648.40863	850.87286	-732.02673	-587.57678	830.43109	-726.07745	-647.91748	763.06573	-1146.91199	-554.21472	1415.30676	-1247.54346	-514.81207	1224.51123	-1264.04089	-521.35895	1102.88672	-1281.52612	-552.59485	987.54138	-1244.73572	-631.78021	860.94910	-1287.74268	-580.73572	852.85284	-1286.36768	-629.73077	784.03821	-892.52716	-632.00140	968.66125	-1110.78796	-635.26428	978.17029	-919.94879	-473.91870	986.56366	-1087.15076	-481.32623	996.72858	-835.36847	-634.36804	652.62085	-857.97656	-681.92352	497.45038	-864.90662	-532.30054	301.12662	-901.41278	-436.81393	156.78833	-950.84534	-398.56757	160.53641	-886.69452	-540.85596	58.62283	-1161.74670	-599.50049	636.82074	-1134.59778	-613.94226	511.87558	-1120.21423	-546.13361	250.29393	-1063.21899	-515.16699	70.80414	-1015.33844	-476.41043	50.20186	-1074.15222	-666.63263	30.93661	-968.77344	-520.61865	1707.34937															 
103	1.020	-892.45642	-615.85565	1656.29456	-1021.76105	-645.49658	1659.16797	-929.48975	-483.29913	1611.51306	-1055.20081	-515.27258	1618.91821	-991.21979	-490.63416	1453.35425	-1003.43182	-464.72195	1122.62402	-983.58936	-602.72369	1379.84436	-979.76563	-649.02441	1208.50024	-1078.28796	-428.21524	1282.56873	-826.79260	-530.57861	1404.46997	-758.70874	-522.11646	1201.47241	-748.96790	-519.19177	1088.25647	-725.86035	-563.20166	944.35486	-762.30713	-648.07239	845.02606	-732.03772	-586.31042	827.46466	-725.92206	-643.47150	757.42950	-1146.99268	-566.97595	1415.37183	-1248.09387	-528.19537	1224.78894	-1264.99634	-535.84808	1103.45715	-1281.90747	-570.70966	989.27509	-1243.99963	-654.14185	865.90753	-1287.03833	-603.73035	855.72919	-1285.17310	-655.16315	788.81836	-893.38806	-644.82117	968.83142	-1111.64270	-646.75739	977.78821	-919.98816	-486.40894	986.70233	-1087.18164	-492.94879	996.65363	-834.83923	-650.87244	654.59515	-858.16211	-700.32251	499.88434	-866.07178	-558.94232	296.20117	-903.27606	-471.43634	146.91087	-953.42828	-434.03571	148.24461	-886.64142	-580.45746	55.15751	-1162.43054	-605.60437	636.52185	-1134.91479	-619.63385	511.05457	-1120.03638	-548.49359	250.19130	-1062.56482	-515.54663	71.19038	-1014.76184	-477.20303	50.50526	-1074.43542	-666.65784	30.89639	-968.19843	-533.43433	1707.18945															 
104	1.030	-891.81964	-628.19720	1655.61621	-1020.86676	-658.24622	1658.87805	-928.90619	-495.55774	1611.23022	-1055.04004	-528.24829	1618.79980	-992.02484	-502.07330	1453.26990	-1003.73578	-476.99594	1122.31726	-983.60596	-615.08142	1379.37415	-980.15192	-661.12579	1207.95654	-1078.79309	-440.64703	1282.51855	-826.90839	-542.64844	1403.84351	-759.36499	-532.02216	1200.75208	-749.89502	-527.42975	1087.62683	-726.39301	-566.64270	942.34589	-762.19183	-647.68164	839.50604	-732.54541	-584.90411	824.52551	-725.73395	-639.06293	752.18756	-1147.07104	-579.72559	1415.29346	-1248.48071	-541.37952	1224.69189	-1265.87366	-550.26990	1103.77100	-1282.18359	-588.64758	990.82196	-1243.00330	-676.07776	870.72119	-1286.24329	-626.47766	858.58148	-1283.87781	-680.39972	793.76398	-894.20428	-657.59351	968.63940	-1112.63782	-658.39569	977.31604	-919.78180	-499.03885	986.43573	-1087.11121	-504.54111	996.38379	-834.58990	-667.20618	656.28436	-858.18030	-718.06018	501.92264	-867.27930	-585.47070	290.96051	-905.14526	-506.74557	137.03615	-956.40930	-470.88641	135.56291	-886.40509	-620.83698	52.17301	-1162.27637	-613.68396	635.89154	-1135.20105	-625.32886	510.14188	-1119.84583	-550.85199	250.08089	-1062.25183	-515.74115	71.55688	-1013.80640	-478.39667	50.24318	-1074.69861	-666.73944	30.84312	-967.66699	-546.09363	1706.80969															 
105	1.040	-891.09052	-640.51740	1654.88232	-1019.96057	-671.08063	1658.47864	-928.74316	-507.98380	1610.52429	-1054.68201	-541.12073	1618.27783	-992.47455	-514.38873	1453.05139	-1003.72064	-489.10153	1121.96375	-983.57263	-627.44525	1378.69165	-980.46820	-673.23798	1207.17297	-1079.34534	-453.01846	1282.37048	-826.92749	-554.86273	1402.99109	-759.92578	-542.10437	1199.77039	-750.67932	-535.93359	1086.73169	-727.04926	-570.09845	940.34735	-762.02283	-647.19690	834.14331	-733.15704	-583.70746	821.74872	-725.74554	-634.62128	747.17828	-1147.03650	-592.52234	1414.91553	-1248.85083	-554.58093	1224.36401	-1266.67200	-564.64087	1103.81848	-1282.28503	-606.37976	992.21692	-1241.86084	-697.74426	875.61792	-1285.34680	-648.86755	861.46844	-1282.18787	-704.86829	798.57440	-894.85760	-670.31470	968.15155	-1113.29700	-669.61749	976.44080	-919.67719	-511.57755	985.82837	-1086.96521	-516.10803	995.89331	-834.74396	-682.33258	657.44336	-858.11182	-734.96881	503.37326	-868.30927	-612.26495	285.54568	-906.99780	-542.91718	127.07528	-958.62598	-507.61328	123.50142	-886.14252	-660.96051	49.18614	-1162.10364	-622.58960	634.57019	-1135.36609	-631.09320	509.14343	-1119.64441	-553.26093	249.90688	-1062.05005	-516.59875	71.73123	-1013.30176	-478.76694	50.65018	-1075.02307	-666.62933	30.78669	-967.12518	-558.67584	1706.15833															 
